<svg width="70" height="24" viewBox="0 0 70 24" fill="none" xmlns="http://www.w3.org/2000/svg">
<path d="M70 22C70 23.1046 69.1046 24 68 24L11.3712 24C10.5004 24 9.67255 23.6216 9.10271 22.9631L1.09152 13.7058C0.459344 12.9752 0.439698 11.8973 1.04483 11.1442L9.09933 1.12083C9.66876 0.412207 10.5288 6.24495e-06 11.4379 6.32443e-06L68 5.5472e-06C69.1046 5.64376e-06 70 0.895435 70 2.00001L70 22Z" fill="url(#paint0_linear)"/>
<path d="M27.6816 17H26.6855V12.9688H22.1738V17H21.1777V8.43359H22.1738V12.0781H26.6855V8.43359H27.6816V17ZM35.4336 13.7832C35.4336 14.8301 35.1699 15.6484 34.6426 16.2383C34.1152 16.8242 33.3867 17.1172 32.457 17.1172C31.8828 17.1172 31.373 16.9824 30.9277 16.7129C30.4824 16.4434 30.1387 16.0566 29.8965 15.5527C29.6543 15.0488 29.5332 14.459 29.5332 13.7832C29.5332 12.7363 29.7949 11.9219 30.3184 11.3398C30.8418 10.7539 31.5684 10.4609 32.498 10.4609C33.3965 10.4609 34.1094 10.7598 34.6367 11.3574C35.168 11.9551 35.4336 12.7637 35.4336 13.7832ZM30.541 13.7832C30.541 14.6035 30.7051 15.2285 31.0332 15.6582C31.3613 16.0879 31.8438 16.3027 32.4805 16.3027C33.1172 16.3027 33.5996 16.0898 33.9277 15.6641C34.2598 15.2344 34.4258 14.6074 34.4258 13.7832C34.4258 12.9668 34.2598 12.3477 33.9277 11.9258C33.5996 11.5 33.1133 11.2871 32.4688 11.2871C31.832 11.2871 31.3516 11.4961 31.0273 11.9141C30.7031 12.332 30.541 12.9551 30.541 13.7832ZM38.0586 10.5781V14.7441C38.0586 15.2676 38.1777 15.6582 38.416 15.916C38.6543 16.1738 39.0273 16.3027 39.5352 16.3027C40.207 16.3027 40.6973 16.1191 41.0059 15.752C41.3184 15.3848 41.4746 14.7852 41.4746 13.9531V10.5781H42.4473V17H41.6445L41.5039 16.1387H41.4512C41.252 16.4551 40.9746 16.6973 40.6191 16.8652C40.2676 17.0332 39.8652 17.1172 39.4121 17.1172C38.6309 17.1172 38.0449 16.9316 37.6543 16.5605C37.2676 16.1895 37.0742 15.5957 37.0742 14.7793V10.5781H38.0586ZM47.4453 10.4609C47.7305 10.4609 47.9863 10.4844 48.2129 10.5312L48.0781 11.4336C47.8125 11.375 47.5781 11.3457 47.375 11.3457C46.8555 11.3457 46.4102 11.5566 46.0391 11.9785C45.6719 12.4004 45.4883 12.9258 45.4883 13.5547V17H44.5156V10.5781H45.3184L45.4297 11.7676H45.4766C45.7148 11.3496 46.002 11.0273 46.3379 10.8008C46.6738 10.5742 47.043 10.4609 47.4453 10.4609ZM50.3867 17H49.4141V7.88281H50.3867V17ZM51.4297 10.5781H52.4727L53.8789 14.2402C54.1875 15.0762 54.3789 15.6797 54.4531 16.0508H54.5C54.5508 15.8516 54.6562 15.5117 54.8164 15.0312C54.9805 14.5469 55.5117 13.0625 56.4102 10.5781H57.4531L54.6934 17.8906C54.4199 18.6133 54.0996 19.125 53.7324 19.4258C53.3691 19.7305 52.9219 19.8828 52.3906 19.8828C52.0938 19.8828 51.8008 19.8496 51.5117 19.7832V19.0039C51.7266 19.0508 51.9668 19.0742 52.2324 19.0742C52.9004 19.0742 53.377 18.6992 53.6621 17.9492L54.0195 17.0352L51.4297 10.5781Z" fill="white"/>
<defs>
<linearGradient id="paint0_linear" x1="3.28166e-07" y1="12" x2="70" y2="12" gradientUnits="userSpaceOnUse">
<stop stop-color="#544CBA"/>
<stop offset="1" stop-color="#7B75CB"/>
</linearGradient>
</defs>
</svg>
